{
	"asset":{
		"generator":"Khronos glTF Blender I/O v3.5.30",
		"version":"2.0"
	},
	"scene":0,
	"scenes":[
		{
			"name":"Scene",
			"nodes":[
				0,
				1,
				2,
				3
			]
		}
	],
	"nodes":[
		{
			"mesh":0,
			"name":"Chair"
		},
		{
			"mesh":1,
			"name":"Cushion"
		},
		{
			"mesh":2,
			"name":"Legs1"
		},
		{
			"mesh":3,
			"name":"Legs2"
		}
	],
	"materials":[
		{
			"doubleSided":true,
			"name":"Chair",
			"pbrMetallicRoughness":{
				"baseColorFactor":[
					0.004653939977288246,
					0.030073080211877823,
					0.0037792674265801907,
					1
				],
				"metallicFactor":0,
				"roughnessFactor":0.8932384252548218
			}
		},
		{
			"doubleSided":true,
			"name":"Cushion",
			"pbrMetallicRoughness":{
				"baseColorFactor":[
					0.0249265618622303,
					0.12596511840820312,
					0.020423419773578644,
					1
				],
				"metallicFactor":0,
				"roughnessFactor":0.8558719158172607
			}
		},
		{
			"doubleSided":true,
			"name":"Legs",
			"pbrMetallicRoughness":{
				"baseColorFactor":[
					0.009954840876162052,
					0.008822723291814327,
					0.010547232814133167,
					1
				],
				"metallicFactor":0,
				"roughnessFactor":0.12277579307556152
			}
		}
	],
	"meshes":[
		{
			"name":"Plane",
			"primitives":[
				{
					"attributes":{
						"POSITION":0,
						"TEXCOORD_0":1,
						"NORMAL":2
					},
					"indices":3,
					"material":0
				}
			]
		},
		{
			"name":"Plane.001",
			"primitives":[
				{
					"attributes":{
						"POSITION":4,
						"TEXCOORD_0":5,
						"NORMAL":6
					},
					"indices":7,
					"material":1
				}
			]
		},
		{
			"name":"Plane.002",
			"primitives":[
				{
					"attributes":{
						"POSITION":8,
						"TEXCOORD_0":9,
						"NORMAL":10
					},
					"indices":11,
					"material":2
				}
			]
		},
		{
			"name":"Plane.003",
			"primitives":[
				{
					"attributes":{
						"POSITION":12,
						"TEXCOORD_0":13,
						"NORMAL":14
					},
					"indices":15,
					"material":2
				}
			]
		}
	],
	"accessors":[
		{
			"bufferView":0,
			"componentType":5126,
			"count":1433,
			"max":[
				1.102556824684143,
				3.0652527809143066,
				1
			],
			"min":[
				-1.0927417278289795,
				0.6014844179153442,
				-1
			],
			"type":"VEC3"
		},
		{
			"bufferView":1,
			"componentType":5126,
			"count":1433,
			"type":"VEC2"
		},
		{
			"bufferView":2,
			"componentType":5126,
			"count":1433,
			"type":"VEC3"
		},
		{
			"bufferView":3,
			"componentType":5123,
			"count":2760,
			"type":"SCALAR"
		},
		{
			"bufferView":4,
			"componentType":5126,
			"count":504,
			"max":[
				0.7762526869773865,
				4.120549201965332,
				1.0991883277893066
			],
			"min":[
				-0.7762526869773865,
				2.3241374492645264,
				-0.744696855545044
			],
			"type":"VEC3"
		},
		{
			"bufferView":5,
			"componentType":5126,
			"count":504,
			"type":"VEC2"
		},
		{
			"bufferView":6,
			"componentType":5126,
			"count":504,
			"type":"VEC3"
		},
		{
			"bufferView":7,
			"componentType":5123,
			"count":828,
			"type":"SCALAR"
		},
		{
			"bufferView":8,
			"componentType":5126,
			"count":426,
			"max":[
				1,
				0.6014844179153442,
				1
			],
			"min":[
				-1,
				0.006865799427032471,
				-0.9978237152099609
			],
			"type":"VEC3"
		},
		{
			"bufferView":9,
			"componentType":5126,
			"count":426,
			"type":"VEC2"
		},
		{
			"bufferView":10,
			"componentType":5126,
			"count":426,
			"type":"VEC3"
		},
		{
			"bufferView":11,
			"componentType":5123,
			"count":744,
			"type":"SCALAR"
		},
		{
			"bufferView":12,
			"componentType":5126,
			"count":72,
			"max":[
				0.8669954538345337,
				0.6014844179153442,
				0.8221668004989624
			],
			"min":[
				-0.8669954538345337,
				2.0101666450500488e-05,
				-0.9045190811157227
			],
			"type":"VEC3"
		},
		{
			"bufferView":13,
			"componentType":5126,
			"count":72,
			"type":"VEC2"
		},
		{
			"bufferView":14,
			"componentType":5126,
			"count":72,
			"type":"VEC3"
		},
		{
			"bufferView":15,
			"componentType":5123,
			"count":96,
			"type":"SCALAR"
		}
	],
	"bufferViews":[
		{
			"buffer":0,
			"byteLength":17196,
			"byteOffset":0,
			"target":34962
		},
		{
			"buffer":0,
			"byteLength":11464,
			"byteOffset":17196,
			"target":34962
		},
		{
			"buffer":0,
			"byteLength":17196,
			"byteOffset":28660,
			"target":34962
		},
		{
			"buffer":0,
			"byteLength":5520,
			"byteOffset":45856,
			"target":34963
		},
		{
			"buffer":0,
			"byteLength":6048,
			"byteOffset":51376,
			"target":34962
		},
		{
			"buffer":0,
			"byteLength":4032,
			"byteOffset":57424,
			"target":34962
		},
		{
			"buffer":0,
			"byteLength":6048,
			"byteOffset":61456,
			"target":34962
		},
		{
			"buffer":0,
			"byteLength":1656,
			"byteOffset":67504,
			"target":34963
		},
		{
			"buffer":0,
			"byteLength":5112,
			"byteOffset":69160,
			"target":34962
		},
		{
			"buffer":0,
			"byteLength":3408,
			"byteOffset":74272,
			"target":34962
		},
		{
			"buffer":0,
			"byteLength":5112,
			"byteOffset":77680,
			"target":34962
		},
		{
			"buffer":0,
			"byteLength":1488,
			"byteOffset":82792,
			"target":34963
		},
		{
			"buffer":0,
			"byteLength":864,
			"byteOffset":84280,
			"target":34962
		},
		{
			"buffer":0,
			"byteLength":576,
			"byteOffset":85144,
			"target":34962
		},
		{
			"buffer":0,
			"byteLength":864,
			"byteOffset":85720,
			"target":34962
		},
		{
			"buffer":0,
			"byteLength":192,
			"byteOffset":86584,
			"target":34963
		}
	],
	"buffers":[
		{
			"byteLength":86776,
			"uri":"data:application/octet-stream;base64,"
		}
	]
}
