{
	"asset":{
		"generator":"Khronos glTF Blender I/O v3.5.30",
		"version":"2.0"
	},
	"scene":0,
	"scenes":[
		{
			"name":"Scene",
			"nodes":[
				0
			]
		}
	],
	"nodes":[
		{
			"mesh":0,
			"name":"Chair",
			"rotation":[
				-0.6994855999946594,
				0,
				0,
				0.7146466970443726
			],
			"scale":[
				0.036161113530397415,
				0.05798041447997093,
				0.04114893451333046
			]
		}
	],
	"materials":[
		{
			"doubleSided":true,
			"emissiveFactor":[
				1,
				1,
				1
			],
			"name":"Chair",
			"pbrMetallicRoughness":{
				"metallicFactor":0
			}
		}
	],
	"meshes":[
		{
			"name":"Plane.008",
			"primitives":[
				{
					"attributes":{
						"POSITION":0,
						"TEXCOORD_0":1,
						"NORMAL":2
					},
					"indices":3,
					"material":0
				}
			]
		}
	],
	"accessors":[
		{
			"bufferView":0,
			"componentType":5126,
			"count":4155,
			"max":[
				46.08826446533203,
				2.9876809120178223,
				60.75308609008789
			],
			"min":[
				-49.52725601196289,
				-1.1091409921646118,
				1.0335880517959595
			],
			"type":"VEC3"
		},
		{
			"bufferView":1,
			"componentType":5126,
			"count":4155,
			"type":"VEC2"
		},
		{
			"bufferView":2,
			"componentType":5126,
			"count":4155,
			"type":"VEC3"
		},
		{
			"bufferView":3,
			"componentType":5123,
			"count":15690,
			"type":"SCALAR"
		}
	],
	"bufferViews":[
		{
			"buffer":0,
			"byteLength":49860,
			"byteOffset":0,
			"target":34962
		},
		{
			"buffer":0,
			"byteLength":33240,
			"byteOffset":49860,
			"target":34962
		},
		{
			"buffer":0,
			"byteLength":49860,
			"byteOffset":83100,
			"target":34962
		},
		{
			"buffer":0,
			"byteLength":31380,
			"byteOffset":132960,
			"target":34963
		}
	],
	"buffers":[
		{
			"byteLength":164340,
			"uri":"data:application/octet-stream;base64,"
		}
	]
}
