{
	"asset":{
		"generator":"Khronos glTF Blender I/O v3.5.30",
		"version":"2.0"
	},
	"scene":0,
	"scenes":[
		{
			"name":"Scene",
			"nodes":[
				1
			]
		}
	],
	"nodes":[
		{
			"mesh":0,
			"name":"Plane"
		},
		{
			"children":[
				0
			],
			"mesh":1,
			"name":"Chair"
		}
	],
	"materials":[
		{
			"doubleSided":true,
			"emissiveFactor":[
				1,
				1,
				1
			],
			"name":"DefaultMaterial",
			"pbrMetallicRoughness":{}
		}
	],
	"meshes":[
		{
			"name":"Plane",
			"primitives":[
				{
					"attributes":{
						"POSITION":0,
						"TEXCOORD_0":1,
						"NORMAL":2
					},
					"indices":3
				}
			]
		},
		{
			"name":"defaultMaterial",
			"primitives":[
				{
					"attributes":{
						"POSITION":4,
						"TEXCOORD_0":5,
						"NORMAL":6
					},
					"indices":7,
					"material":0
				}
			]
		}
	],
	"accessors":[
		{
			"bufferView":0,
			"componentType":5126,
			"count":4,
			"max":[
				0.7928319573402405,
				3.1453752517700195,
				0.1438918560743332
			],
			"min":[
				-0.7985594272613525,
				1.0511574745178223,
				0.07935286313295364
			],
			"type":"VEC3"
		},
		{
			"bufferView":1,
			"componentType":5126,
			"count":4,
			"type":"VEC2"
		},
		{
			"bufferView":2,
			"componentType":5126,
			"count":4,
			"type":"VEC3"
		},
		{
			"bufferView":3,
			"componentType":5123,
			"count":6,
			"type":"SCALAR"
		},
		{
			"bufferView":4,
			"componentType":5126,
			"count":710,
			"max":[
				0.848811149597168,
				3.177422046661377,
				0.15445378422737122
			],
			"min":[
				-0.848811149597168,
				-0.0041962419636547565,
				-0.15483976900577545
			],
			"type":"VEC3"
		},
		{
			"bufferView":5,
			"componentType":5126,
			"count":710,
			"type":"VEC2"
		},
		{
			"bufferView":6,
			"componentType":5126,
			"count":710,
			"type":"VEC3"
		},
		{
			"bufferView":7,
			"componentType":5123,
			"count":2628,
			"type":"SCALAR"
		}
	],
	"bufferViews":[
		{
			"buffer":0,
			"byteLength":48,
			"byteOffset":0,
			"target":34962
		},
		{
			"buffer":0,
			"byteLength":32,
			"byteOffset":48,
			"target":34962
		},
		{
			"buffer":0,
			"byteLength":48,
			"byteOffset":80,
			"target":34962
		},
		{
			"buffer":0,
			"byteLength":12,
			"byteOffset":128,
			"target":34963
		},
		{
			"buffer":0,
			"byteLength":8520,
			"byteOffset":140,
			"target":34962
		},
		{
			"buffer":0,
			"byteLength":5680,
			"byteOffset":8660,
			"target":34962
		},
		{
			"buffer":0,
			"byteLength":8520,
			"byteOffset":14340,
			"target":34962
		},
		{
			"buffer":0,
			"byteLength":5256,
			"byteOffset":22860,
			"target":34963
		}
	],
	"buffers":[
		{
			"byteLength":28116,
			"uri":"data:application/octet-stream;base64,"
		}
	]
}
