{
	"asset":{
		"generator":"Khronos glTF Blender I/O v3.5.30",
		"version":"2.0"
	},
	"scene":0,
	"scenes":[
		{
			"name":"Scene",
			"nodes":[
				0,
				1
			]
		}
	],
	"nodes":[
		{
			"mesh":0,
			"name":"Object_2",
			"rotation":[
				-0.684050440788269,
				0.1306418478488922,
				0.1265082061290741,
				0.7064017057418823
			],
			"scale":[
				2.8471145629882812,
				2.9185378551483154,
				2.8081233501434326
			]
		},
		{
			"mesh":1,
			"name":"Object_3",
			"rotation":[
				-0.684050440788269,
				0.1306418478488922,
				0.1265082061290741,
				0.7064017057418823
			],
			"scale":[
				2.8471145629882812,
				2.9185378551483154,
				2.8081233501434326
			]
		}
	],
	"materials":[
		{
			"doubleSided":true,
			"name":"Material.021",
			"pbrMetallicRoughness":{
				"baseColorFactor":[
					0.6358071565628052,
					0,
					0,
					1
				],
				"metallicFactor":0.3300394117832184,
				"roughnessFactor":0.2747493386268616
			}
		},
		{
			"doubleSided":true,
			"name":"Material.022",
			"pbrMetallicRoughness":{
				"metallicFactor":0,
				"roughnessFactor":0.15314587950706482
			}
		}
	],
	"meshes":[
		{
			"name":"Object_0",
			"primitives":[
				{
					"attributes":{
						"POSITION":0,
						"NORMAL":1
					},
					"indices":2,
					"material":0
				}
			]
		},
		{
			"name":"Object_1",
			"primitives":[
				{
					"attributes":{
						"POSITION":3,
						"NORMAL":4
					},
					"indices":5,
					"material":1
				}
			]
		}
	],
	"accessors":[
		{
			"bufferView":0,
			"componentType":5126,
			"count":14658,
			"max":[
				0.4491960108280182,
				0.5554019808769226,
				1.1981070041656494
			],
			"min":[
				-0.33914199471473694,
				-0.5683140158653259,
				0.051635000854730606
			],
			"type":"VEC3"
		},
		{
			"bufferView":1,
			"componentType":5126,
			"count":14658,
			"type":"VEC3"
		},
		{
			"bufferView":2,
			"componentType":5123,
			"count":85077,
			"type":"SCALAR"
		},
		{
			"bufferView":3,
			"componentType":5126,
			"count":7105,
			"max":[
				0.4303649961948395,
				0.20129400491714478,
				1.198259949684143
			],
			"min":[
				-0.320360004901886,
				-0.5492600202560425,
				0.09034900367259979
			],
			"type":"VEC3"
		},
		{
			"bufferView":4,
			"componentType":5126,
			"count":7105,
			"type":"VEC3"
		},
		{
			"bufferView":5,
			"componentType":5123,
			"count":40824,
			"type":"SCALAR"
		}
	],
	"bufferViews":[
		{
			"buffer":0,
			"byteLength":175896,
			"byteOffset":0,
			"target":34962
		},
		{
			"buffer":0,
			"byteLength":175896,
			"byteOffset":175896,
			"target":34962
		},
		{
			"buffer":0,
			"byteLength":170154,
			"byteOffset":351792,
			"target":34963
		},
		{
			"buffer":0,
			"byteLength":85260,
			"byteOffset":521948,
			"target":34962
		},
		{
			"buffer":0,
			"byteLength":85260,
			"byteOffset":607208,
			"target":34962
		},
		{
			"buffer":0,
			"byteLength":81648,
			"byteOffset":692468,
			"target":34963
		}
	],
	"buffers":[
		{
			"byteLength":774116,
			"uri":"data:application/octet-stream;base64,"
		}
	]
}
