{
	"asset":{
		"generator":"Khronos glTF Blender I/O v3.5.30",
		"version":"2.0"
	},
	"scene":0,
	"scenes":[
		{
			"name":"Scene",
			"nodes":[
				1
			]
		}
	],
	"nodes":[
		{
			"mesh":0,
			"name":"Plane",
			"rotation":[
				-0.4992052912712097,
				0.500931441783905,
				0.498693585395813,
				0.5011650919914246
			],
			"scale":[
				0.4623384475708008,
				0.7132502794265747,
				0.6580085754394531
			],
			"translation":[
				0.06788275390863419,
				0.3216305375099182,
				-0.0005758106708526611
			]
		},
		{
			"children":[
				0
			],
			"mesh":1,
			"name":"Chair",
			"rotation":[
				0,
				-0.7192080616950989,
				0,
				0.694794774055481
			],
			"scale":[
				1.644816279411316,
				1.5908089876174927,
				1.7214150428771973
			],
			"translation":[
				0,
				1.5866129398345947,
				0
			]
		}
	],
	"materials":[
		{
			"doubleSided":true,
			"emissiveFactor":[
				1,
				1,
				1
			],
			"name":"DefaultMaterial",
			"pbrMetallicRoughness":{}
		}
	],
	"meshes":[
		{
			"name":"Plane",
			"primitives":[
				{
					"attributes":{
						"POSITION":0,
						"TEXCOORD_0":1,
						"NORMAL":2
					},
					"indices":3
				}
			]
		},
		{
			"name":"defaultMaterial",
			"primitives":[
				{
					"attributes":{
						"POSITION":4,
						"TEXCOORD_0":5,
						"NORMAL":6
					},
					"indices":7,
					"material":0
				}
			]
		}
	],
	"accessors":[
		{
			"bufferView":0,
			"componentType":5126,
			"count":4,
			"max":[
				1,
				0,
				1
			],
			"min":[
				-1,
				0,
				-1
			],
			"type":"VEC3"
		},
		{
			"bufferView":1,
			"componentType":5126,
			"count":4,
			"type":"VEC2"
		},
		{
			"bufferView":2,
			"componentType":5126,
			"count":4,
			"type":"VEC3"
		},
		{
			"bufferView":3,
			"componentType":5123,
			"count":6,
			"type":"SCALAR"
		},
		{
			"bufferView":4,
			"componentType":5126,
			"count":696,
			"max":[
				0.07684960216283798,
				1,
				0.4912239909172058
			],
			"min":[
				-0.07684960216283798,
				-1,
				-0.4912239909172058
			],
			"type":"VEC3"
		},
		{
			"bufferView":5,
			"componentType":5126,
			"count":696,
			"type":"VEC2"
		},
		{
			"bufferView":6,
			"componentType":5126,
			"count":696,
			"type":"VEC3"
		},
		{
			"bufferView":7,
			"componentType":5123,
			"count":2628,
			"type":"SCALAR"
		}
	],
	"bufferViews":[
		{
			"buffer":0,
			"byteLength":48,
			"byteOffset":0,
			"target":34962
		},
		{
			"buffer":0,
			"byteLength":32,
			"byteOffset":48,
			"target":34962
		},
		{
			"buffer":0,
			"byteLength":48,
			"byteOffset":80,
			"target":34962
		},
		{
			"buffer":0,
			"byteLength":12,
			"byteOffset":128,
			"target":34963
		},
		{
			"buffer":0,
			"byteLength":8352,
			"byteOffset":140,
			"target":34962
		},
		{
			"buffer":0,
			"byteLength":5568,
			"byteOffset":8492,
			"target":34962
		},
		{
			"buffer":0,
			"byteLength":8352,
			"byteOffset":14060,
			"target":34962
		},
		{
			"buffer":0,
			"byteLength":5256,
			"byteOffset":22412,
			"target":34963
		}
	],
	"buffers":[
		{
			"byteLength":27668,
			"uri":"data:application/octet-stream;base64,"
		}
	]
}
