{
	"asset":{
		"generator":"Khronos glTF Blender I/O v3.5.30",
		"version":"2.0"
	},
	"scene":0,
	"scenes":[
		{
			"name":"Scene",
			"nodes":[
				0,
				1
			]
		}
	],
	"nodes":[
		{
			"mesh":0,
			"name":"Chair"
		},
		{
			"mesh":1,
			"name":"Plane"
		}
	],
	"materials":[
		{
			"doubleSided":true,
			"emissiveFactor":[
				1,
				1,
				1
			],
			"name":"DefaultMaterial",
			"pbrMetallicRoughness":{}
		}
	],
	"meshes":[
		{
			"name":"defaultMaterial",
			"primitives":[
				{
					"attributes":{
						"POSITION":0,
						"TEXCOORD_0":1,
						"NORMAL":2
					},
					"indices":3,
					"material":0
				}
			]
		},
		{
			"name":"Cube.001",
			"primitives":[
				{
					"attributes":{
						"POSITION":4,
						"TEXCOORD_0":5,
						"NORMAL":6
					},
					"indices":7
				}
			]
		}
	],
	"accessors":[
		{
			"bufferView":0,
			"componentType":5126,
			"count":710,
			"max":[
				0.848811149597168,
				3.177422046661377,
				0.15445378422737122
			],
			"min":[
				-0.848811149597168,
				-0.0041962419636547565,
				-0.15483976900577545
			],
			"type":"VEC3"
		},
		{
			"bufferView":1,
			"componentType":5126,
			"count":710,
			"type":"VEC2"
		},
		{
			"bufferView":2,
			"componentType":5126,
			"count":710,
			"type":"VEC3"
		},
		{
			"bufferView":3,
			"componentType":5123,
			"count":2628,
			"type":"SCALAR"
		},
		{
			"bufferView":4,
			"componentType":5126,
			"count":24,
			"max":[
				0.9929773807525635,
				4.844415664672852,
				0.2464132457971573
			],
			"min":[
				-1.0085740089416504,
				2.300543785095215,
				0.11066536605358124
			],
			"type":"VEC3"
		},
		{
			"bufferView":5,
			"componentType":5126,
			"count":24,
			"type":"VEC2"
		},
		{
			"bufferView":6,
			"componentType":5126,
			"count":24,
			"type":"VEC3"
		},
		{
			"bufferView":7,
			"componentType":5123,
			"count":36,
			"type":"SCALAR"
		}
	],
	"bufferViews":[
		{
			"buffer":0,
			"byteLength":8520,
			"byteOffset":0,
			"target":34962
		},
		{
			"buffer":0,
			"byteLength":5680,
			"byteOffset":8520,
			"target":34962
		},
		{
			"buffer":0,
			"byteLength":8520,
			"byteOffset":14200,
			"target":34962
		},
		{
			"buffer":0,
			"byteLength":5256,
			"byteOffset":22720,
			"target":34963
		},
		{
			"buffer":0,
			"byteLength":288,
			"byteOffset":27976,
			"target":34962
		},
		{
			"buffer":0,
			"byteLength":192,
			"byteOffset":28264,
			"target":34962
		},
		{
			"buffer":0,
			"byteLength":288,
			"byteOffset":28456,
			"target":34962
		},
		{
			"buffer":0,
			"byteLength":72,
			"byteOffset":28744,
			"target":34963
		}
	],
	"buffers":[
		{
			"byteLength":28816,
			"uri":"data:application/octet-stream;base64,"
		}
	]
}
